<?xml version="1.0" encoding="UTF-8" standalone="no"?>
<!DOCTYPE svg PUBLIC "-//W3C//DTD SVG 1.1//EN" "http://www.w3.org/Graphics/SVG/1.1/DTD/svg11.dtd">

<!-- Created with Vectornator (http://vectornator.io/) -->
<svg stroke-miterlimit="10" style="fill-rule:nonzero;clip-rule:evenodd;stroke-linecap:round;stroke-linejoin:round;" version="1.1" viewBox="0 0 1024 1024" xmlns="http://www.w3.org/2000/svg" >
<defs>
<linearGradient gradientTransform="matrix(1 0 0 1 0 0)" gradientUnits="userSpaceOnUse" id="LinearGradient" x1="281.655" x2="849.157" y1="350.441" y2="350.441">
<stop offset="0" stop-color="#3f88c5"/>
<stop offset="1" stop-color="#44bba4"/>
</linearGradient>
<linearGradient gradientTransform="matrix(1 0 0 1 0 0)" gradientUnits="userSpaceOnUse" id="LinearGradient_2" x1="281.654" x2="849.16" y1="673.569" y2="673.569">
<stop offset="0" stop-color="#3f88c5"/>
<stop offset="1" stop-color="#44bba4"/>
</linearGradient>
</defs>
<g id="Layer-1">
<path d="M565.406 46.5C565.083 46.5 564.759 46.66 564.562 46.9688L281.812 491.281C281.506 491.763 281.661 492.404 282.156 492.688C282.708 493.003 564.354 653.935 564.906 654.25C565.214 654.426 565.599 654.426 565.906 654.25L848.656 492.688C849.152 492.404 849.306 491.763 849 491.281L566.25 46.9688C566.054 46.66 565.73 46.5 565.406 46.5ZM565.406 49.3438L846.75 491.469L565.406 652.219C563.873 651.343 286.411 492.81 284.062 491.469L565.406 49.3438ZM565.406 46.5C564.854 46.5 564.406 46.9477 564.406 47.5L564.406 653.375C564.406 653.927 564.854 654.375 565.406 654.375C565.959 654.375 566.406 653.927 566.406 653.375L566.406 47.5C566.406 46.9477 565.959 46.5 565.406 46.5Z" fill="url(#LinearGradient)" fill-rule="evenodd" opacity="1" stroke="none"/>
<path d="M282.469 591.781C282.037 591.869 281.693 592.279 281.656 592.719C281.638 592.938 281.715 593.157 281.875 593.375C282.427 594.124 564.042 976.344 564.594 977.094C564.794 977.365 565.104 977.5 565.406 977.5C565.709 977.5 566.019 977.365 566.219 977.094L848.969 593.375C849.129 593.157 849.175 592.938 849.156 592.719C849.119 592.279 848.776 591.869 848.344 591.781C848.128 591.737 847.891 591.772 847.656 591.906L565.406 753.219L283.156 591.906C282.922 591.772 282.685 591.737 282.469 591.781ZM286.281 596.031L564.906 755.219C565.214 755.394 565.599 755.394 565.906 755.219L844.531 596.031L565.406 974.812C563.279 971.926 292.316 604.222 286.281 596.031ZM565.406 753.344C564.854 753.344 564.406 753.791 564.406 754.344L564.406 976.5C564.406 977.052 564.854 977.5 565.406 977.5C565.959 977.5 566.406 977.052 566.406 976.5L566.406 754.344C566.406 753.791 565.959 753.344 565.406 753.344ZM565.031 369.719L282.281 490.875C281.774 491.093 281.532 491.68 281.75 492.188C281.968 492.695 282.555 492.936 283.062 492.719L565.438 371.688L847.75 492.719C848.258 492.936 848.845 492.695 849.062 492.188C849.28 491.68 849.07 491.092 848.562 490.875L565.812 369.719C565.561 369.611 565.283 369.611 565.031 369.719Z" fill="url(#LinearGradient_2)" fill-rule="evenodd" opacity="1" stroke="none"/>
</g>
</svg>
