<?xml version="1.0" encoding="UTF-8" standalone="no"?> <!-- Created with Vectornator (http://vectornator.io/) --><!DOCTYPE svg PUBLIC "-//W3C//DTD SVG 1.1//EN" "http://www.w3.org/Graphics/SVG/1.1/DTD/svg11.dtd">
<svg height="100%" stroke-miterlimit="10" style="fill-rule:nonzero;clip-rule:evenodd;stroke-linecap:round;stroke-linejoin:round;" version="1.1" viewBox="0 0 595.35 419.58" width="100%" xml:space="preserve" xmlns="http://www.w3.org/2000/svg" xmlns:vectornator="http://vectornator.io" xmlns:xlink="http://www.w3.org/1999/xlink">
<metadata>
<vectornator:setting key="IsTimeLapseWatermarkDisabled" value="false"/>
<vectornator:setting key="UndoHistoryDisabled" value="true"/>
<vectornator:setting key="VNDimensionsVisible" value="true"/>
<vectornator:setting key="VNSnapToGuides" value="false"/>
<vectornator:setting key="WDCMYKEnabledKey" value="false"/>
<vectornator:setting key="WDDisplayWhiteBackground" value="true"/>
<vectornator:setting key="WDDynamicGuides" value="true"/>
<vectornator:setting key="WDGuidesVisible" value="true"/>
<vectornator:setting key="WDIsolateActiveLayer" value="false"/>
<vectornator:setting key="WDOutlineMode" value="false"/>
<vectornator:setting key="WDRulersVisible" value="true"/>
<vectornator:setting key="WDSnapToEdges" value="false"/>
<vectornator:setting key="WDSnapToGrid" value="false"/>
<vectornator:setting key="WDSnapToPoints" value="true"/>
<vectornator:setting key="WDUnits" value="Millimeters"/>
</metadata>
<defs/>
<g id="Layer-1" vectornator:layerName="Layer 1" visibility="hidden">
<path d="M0 0L595.35 0L595.35 419.58L0 419.58L0 0Z" fill="#393e41" fill-rule="evenodd" opacity="1" stroke="#000000" stroke-linecap="round" stroke-linejoin="round" stroke-width="1.28982"/>
</g>
<g id="Layer-3" vectornator:layerName="Layer 3">
<path d="M368.855 132.307L416.967 152.353L416.967 208.483L368.855 188.437L368.855 132.307Z" fill="none" fill-rule="evenodd" opacity="1" stroke="#0b9ff8" stroke-linecap="round" stroke-linejoin="round" stroke-width="1.28982"/>
<path d="M465.078 132.307L416.967 152.353L416.967 208.483L465.078 188.437L465.078 132.307Z" fill="none" fill-rule="evenodd" opacity="1" stroke="#0b9ff8" stroke-linecap="round" stroke-linejoin="round" stroke-width="1.28982"/>
<path d="M368.855 132.307L416.967 152.353L465.078 132.307L416.967 112.26L368.855 132.307Z" fill="none" fill-rule="evenodd" opacity="1" stroke="#0b9ff8" stroke-linecap="round" stroke-linejoin="round" stroke-width="1.28982"/>
<path d="M465.078 188.437L416.967 168.39L416.967 112.26L465.078 132.307L465.078 188.437Z" fill="none" fill-rule="evenodd" opacity="1" stroke="#0b9ff8" stroke-dasharray="3.705923151613301" stroke-linecap="round" stroke-linejoin="round" stroke-width="1.28982"/>
<path d="M368.855 188.437L416.967 168.39L416.967 112.26L368.855 132.307L368.855 188.437Z" fill="none" fill-rule="evenodd" opacity="1" stroke="#0b9ff8" stroke-dasharray="3.705923151613301" stroke-linecap="round" stroke-linejoin="round" stroke-width="1.28982"/>
<path d="M229.875 293.679L392.911 222.962" fill="none" fill-rule="evenodd" opacity="1" stroke="#0b9ff8" stroke-linecap="round" stroke-linejoin="round" stroke-width="1.28982"/>
<g opacity="1">
<path d="M467.083 280.651L522.981 256.405" fill="none" fill-rule="evenodd" opacity="1" stroke="#0b9ff8" stroke-linecap="round" stroke-linejoin="round" stroke-width="1.28982"/>
<path d="M441.022 222.516L522.981 256.405" fill="none" fill-rule="evenodd" opacity="1" stroke="#0b9ff8" stroke-linecap="round" stroke-linejoin="round" stroke-width="1.28982"/>
</g>
<path d="M364.411 235.544L392.477 223.326" fill="none" fill-rule="evenodd" opacity="1" stroke="#0b9ff8" stroke-linecap="round" stroke-linejoin="round" stroke-width="1.28982"/>
<g opacity="1">
<path d="M338.628 274.637L364.43 263.24" fill="none" fill-rule="evenodd" opacity="1" stroke="#0b9ff8" stroke-linecap="round" stroke-linejoin="round" stroke-width="1.28982"/>
<path d="M364.38 235.544C364.38 235.544 364.377 263.284 364.381 263.24" fill="none" fill-rule="evenodd" opacity="1" stroke="#0b9ff8" stroke-linecap="round" stroke-linejoin="round" stroke-width="1.28982"/>
</g>
<path d="M416.967 232.539L465.078 212.528L416.967 192.481L368.855 212.528L416.967 232.539Z" fill="none" fill-rule="evenodd" opacity="1" stroke="#0b9ff8" stroke-linecap="round" stroke-linejoin="round" stroke-width="1.28982"/>
<path d="M534.208 137.33L536.213 251.595L454.03 217.53" fill="none" fill-rule="evenodd" opacity="1" stroke="#0b9ff8" stroke-linecap="round" stroke-linejoin="round" stroke-width="1.28982"/>
<g opacity="1">
<path d="M313.875 169.906L312.156 170.625L390.656 203.062C390.985 203.199 391.364 203.048 391.5 202.719C391.636 202.39 391.485 202.011 391.156 201.875L313.875 169.906Z" fill="#0b9ff8" fill-rule="evenodd" opacity="1" stroke="none"/>
<path d="M312.156 170.625L310.469 169.906L269 187.062L270.688 187.75L312.156 170.625Z" fill="#0b9ff8" fill-rule="evenodd" opacity="1" stroke="none"/>
<path d="M312.188 169.219L310.469 169.906L312.156 170.625L313.875 169.906L312.188 169.219Z" fill="#0b9ff8" fill-rule="evenodd" opacity="1" stroke="none"/>
<path d="M267.312 187.75L269 187.062L212.75 163.781C212.421 163.645 212.042 163.796 211.906 164.125C211.77 164.454 211.921 164.833 212.25 164.969L267.312 187.75Z" fill="#0b9ff8" fill-rule="evenodd" opacity="1" stroke="none"/>
<path d="M269 187.062L267.312 187.75L269 188.438L270.688 187.75L269 187.062Z" fill="#0b9ff8" fill-rule="evenodd" opacity="1" stroke="none"/>
<path d="M212.506 164.396L212.493 144.335" fill="none" fill-rule="evenodd" opacity="1" stroke="#0b9ff8" stroke-linecap="round" stroke-linejoin="round" stroke-width="1.28982"/>
</g>
<path d="M368.855 132.307L416.967 152.353L416.967 208.483L368.855 188.437L368.855 132.307Z" fill="#0b9ff8" fill-rule="evenodd" opacity="0.15" stroke="none"/>
<path d="M465.078 132.307L416.967 152.353L416.967 208.483L465.078 188.437L465.078 132.307Z" fill="#0b9ff8" fill-rule="evenodd" opacity="0.15" stroke="none"/>
<path d="M416.967 152.353L465.078 132.307L416.967 112.26L368.855 132.307L416.967 152.353Z" fill="#0b9ff8" fill-rule="evenodd" opacity="0.15" stroke="none"/>
<g opacity="1">
<path d="M534.219 137.344L578.017 155.586C580.389 156.574 582.312 155.292 582.312 152.722L582.312 105.903C582.312 103.333 580.39 100.448 578.018 99.4586L534.219 81.1875L490.389 62.9443C488.017 61.9568 486.094 63.2395 486.094 65.8092L486.094 112.628C486.094 115.198 488.017 118.083 490.388 119.072L534.219 137.344Z" fill="none" fill-rule="evenodd" opacity="1" stroke="#0b9ff8" stroke-linecap="round" stroke-linejoin="round" stroke-width="1.28982"/>
<path d="M486.16 68.6982L581.348 108.251" fill="none" fill-rule="evenodd" opacity="1" stroke="#0b9ff8" stroke-linecap="round" stroke-linejoin="round" stroke-width="1.37054"/>
<path d="M534.285 136.329L578.083 154.572C580.456 155.56 582.379 154.277 582.379 151.708L582.379 104.889C582.379 102.319 580.456 99.4336 578.084 98.4443L534.285 80.1732L490.456 61.9299C488.083 60.9424 486.16 62.2251 486.16 64.7949L486.16 111.614C486.16 114.184 488.083 117.069 490.455 118.057L534.285 136.329Z" fill="#0b9ff8" fill-rule="evenodd" opacity="0.15" stroke="none"/>
<path d="M525.067 149.064L568.866 167.307C571.238 168.295 573.161 167.012 573.161 164.443L573.161 117.624C573.161 115.054 571.238 112.169 568.867 111.179L525.067 92.9081L481.238 74.6649C478.865 73.6774 476.942 74.9601 476.942 77.5299L476.942 124.349C476.942 126.919 478.865 129.803 481.237 130.792L525.067 149.064Z" fill="#0b9ff8" fill-rule="evenodd" opacity="0.15" stroke="none"/>
<path d="M541.374 134.019L585.172 152.261C587.544 153.249 589.467 151.967 589.467 149.397L589.467 102.578C589.467 100.008 587.545 97.123 585.173 96.1336L541.374 77.8625L497.544 59.6193C495.172 58.6318 493.249 59.9145 493.249 62.4843L493.249 109.303C493.249 111.873 495.171 114.758 497.543 115.747L541.374 134.019Z" fill="#0b9ff8" fill-rule="evenodd" opacity="0.15" stroke="none"/>
</g>
</g>
<g id="Layer-8" vectornator:layerName="Layer 8">
<path d="M447.036 317.939L495.148 297.927L447.036 277.88L398.925 297.927L447.036 317.939Z" fill="none" fill-rule="evenodd" opacity="0" stroke="#0b9ff8" stroke-linecap="round" stroke-linejoin="round" stroke-width="1.28982"/>
<g opacity="1">
<path d="M447.036 312.69L495.148 292.679L447.036 272.632L398.925 292.679L447.036 312.69Z" fill="none" fill-rule="evenodd" opacity="1" stroke="#0b9ff8" stroke-linecap="round" stroke-linejoin="round" stroke-width="1.28982"/>
<path d="M398.925 297.927L398.925 292.679L447.036 312.69L495.148 292.679C495.148 297.927 495.148 297.927 495.148 297.927L447.036 317.939L398.925 297.927Z" fill="#0b9af0" fill-rule="evenodd" opacity="1" stroke="#0b9ff8" stroke-linecap="round" stroke-linejoin="round" stroke-width="1.28982"/>
</g>
<g opacity="1">
<path d="M198.088 348.809L279.907 314.777L198.088 280.686L116.27 314.777L198.088 348.809Z" fill="none" fill-rule="evenodd" opacity="1" stroke="#0b9ff8" stroke-linecap="round" stroke-linejoin="round" stroke-width="1.28982"/>
<path d="M116.27 314.777L198.088 348.809L279.907 314.777L279.907 320.783L198.088 354.815L116.27 320.783L116.27 314.777Z" fill="#0b9af0" fill-rule="evenodd" opacity="1" stroke="#0b9ff8" stroke-linecap="round" stroke-linejoin="round" stroke-width="1.28982"/>
</g>
<g opacity="1">
<path d="M327.543 270.662L298.693 282.662L327.543 294.683L356.393 282.662L327.543 270.662Z" fill="none" fill-rule="evenodd" opacity="1" stroke="#0b9ff8" stroke-linecap="round" stroke-linejoin="round" stroke-width="1.28982"/>
<path d="M298.693 282.662L327.543 294.683L356.393 282.662L356.393 285.226L327.543 297.246L298.693 285.226L298.693 282.662Z" fill="#0b9af0" fill-rule="evenodd" opacity="1" stroke="#0b9ff8" stroke-linecap="round" stroke-linejoin="round" stroke-width="1.28982"/>
</g>
<path d="M349.594 209.962L320.744 221.962L349.594 233.983L378.444 221.962L349.594 209.962Z" fill="none" fill-rule="evenodd" opacity="1" stroke="#0b9ff8" stroke-linecap="round" stroke-linejoin="round" stroke-width="1.28982"/>
<path d="M320.744 221.962L349.594 233.983L378.444 221.962L378.444 224.51L349.594 236.531L320.744 224.51L320.744 221.962Z" fill="#0b9af0" fill-rule="evenodd" opacity="1" stroke="#0b9ff8" stroke-linecap="round" stroke-linejoin="round" stroke-width="1.28982"/>
<path d="M368.855 212.528L416.967 232.539L465.078 212.528L465.078 215.532L416.967 235.544L368.855 215.532L368.855 212.528Z" fill="#0b9af0" fill-rule="evenodd" opacity="1" stroke="#0b9ff8" stroke-linecap="round" stroke-linejoin="round" stroke-width="1.28982"/>
</g>
<g id="Layer-5" vectornator:layerName="Layer 5">
<path d="M171.279 121.576L171.455 152.811L219.738 132.764L219.563 101.529L171.279 121.576Z" fill="none" fill-rule="evenodd" opacity="1" stroke="#0b9ff8" stroke-linecap="round" stroke-linejoin="round" stroke-width="1"/>
<path d="M213.408 108.875C210.19 108.983 212.775 120.859 207.627 123.219C202.479 125.579 199.52 121.548 194.908 123.157C190.296 124.765 193.794 134.039 183.658 135.969C177.746 137.095 173.786 135.251 171.346 133.5L171.439 152.813L219.752 132.75L219.658 117.313C217.188 114.879 215.839 108.794 213.408 108.875Z" fill="#09a2fe" fill-opacity="0.0766722" fill-rule="evenodd" opacity="1" stroke="#0b9ff8" stroke-linecap="round" stroke-linejoin="round" stroke-width="1"/>
<path d="M212.506 88.1893L258.432 69.061C259.629 68.5623 260.6 69.2095 260.6 70.5066L260.6 121.934C260.6 123.232 259.629 124.688 258.432 125.187L212.506 144.346L166.549 163.474C165.352 163.973 164.381 163.325 164.381 162.028L164.381 110.6C164.381 109.303 165.352 107.847 166.549 107.348L212.506 88.1893Z" fill="#09a2fe" fill-opacity="0.0766722" fill-rule="evenodd" opacity="1" stroke="#0b9ff8" stroke-linecap="round" stroke-linejoin="round" stroke-width="1.28982"/>
<path d="M164.593 116.324L260.455 76.3433" fill="none" fill-rule="evenodd" opacity="1" stroke="#0b9ff8" stroke-linecap="round" stroke-linejoin="round" stroke-width="1.28982"/>
<path d="M231.768 102.644L246.799 96.558L246.968 101.252L231.937 107.338L231.768 102.644Z" fill="#09a2fe" fill-rule="evenodd" opacity="1" stroke="none"/>
<path d="M232.07 111.038L241.541 107.204L241.71 111.898L232.239 115.732L232.07 111.038Z" fill="#09a2fe" fill-rule="evenodd" opacity="1" stroke="none"/>
<path d="M232.373 119.432L246.065 113.888L246.234 118.582L232.542 124.126L232.373 119.432Z" fill="#09a2fe" fill-rule="evenodd" opacity="1" stroke="none"/>
<path d="M252.656 66.6875L206.719 85.8125L160.75 104.969C159.553 105.468 158.594 106.922 158.594 108.219L158.594 159.656C158.594 160.953 159.552 161.592 160.75 161.094L164.375 159.594L164.375 110.594C164.375 109.297 165.365 107.843 166.562 107.344L212.5 88.1875L254.812 70.5625L254.812 68.125C254.812 66.8279 253.854 66.1888 252.656 66.6875Z" fill="#09a2fe" fill-rule="evenodd" opacity="1" stroke="#0b9ff8" stroke-linecap="round" stroke-linejoin="round" stroke-width="1.28982"/>
</g>
<g id="Person" vectornator:layerName="Person">
<path d="M349.515 152.499C349.515 148.07 353.105 144.48 357.534 144.48C361.963 144.48 365.553 148.07 365.553 152.499C365.553 154.482 365.553 160.518 363.548 162.522C362.63 163.44 360.041 162.833 357.549 162.041C356.612 161.743 357.032 164.968 356.216 164.69C355.411 164.415 351.364 162.64 350.858 162.522C348.616 161.998 349.515 156.928 349.515 152.499Z" fill="#fed3e4" fill-rule="evenodd" opacity="1" stroke="none"/>
<path d="M349.515 152.499C349.515 148.07 353.105 144.48 357.534 144.48C361.963 144.48 365.553 148.07 365.553 152.499C365.553 154.112 361.459 153.625 358.589 152.961C358.266 152.886 357.108 154.695 357.235 154.429C357.596 153.671 357.108 152.574 356.872 152.499C356.701 152.445 355.915 151.827 355.429 153.235C355.14 154.069 355.387 156.922 354.759 157.465C352.807 159.149 349.311 158.649 349.358 157.173C349.405 155.685 349.515 154.053 349.515 152.499Z" fill="#000000" fill-rule="evenodd" opacity="1" stroke="none"/>
<path d="M341.212 194.509L342.164 207.894C342.164 207.894 343.225 223.2 342.814 223.462C342.787 223.479 347.764 219.955 347.764 219.955L349.066 211.262L348.912 200.306L356.41 207.172L357.827 222.473L361.097 220.458L361.756 208.38L358.237 195.21L341.212 194.509Z" fill="#7a85ff" fill-rule="evenodd" opacity="1" stroke="none"/>
<path d="M342.951 223.758C342.562 222.867 344.105 221.423 346.397 220.532C348.689 219.641 350.862 219.64 351.251 220.531C351.64 221.421 350.097 222.865 347.805 223.756C345.513 224.648 343.34 224.648 342.951 223.758Z" fill="#12163b" fill-rule="evenodd" opacity="1" stroke="none"/>
<path d="M357.684 222.754C357.295 221.864 358.838 220.42 361.13 219.529C363.422 218.638 365.595 218.637 365.984 219.528C366.373 220.418 364.83 221.862 362.538 222.753C360.246 223.644 358.073 223.645 357.684 222.754Z" fill="#12163b" fill-rule="evenodd" opacity="1" stroke="none"/>
<path d="M349.934 161.862C348.98 161.801 344.876 165.891 344.21 175.283C343.544 184.675 343.472 185.474 341.267 192.375C339.062 199.275 345.309 195.355 351.026 196.026C356.744 196.697 358.855 196.855 360.038 191.781C361.22 186.707 360.319 165.769 356.902 162.973C356.902 162.973 355.302 163.488 353.167 162.876C351.139 162.295 350.941 161.926 349.934 161.862Z" fill="#12163b" fill-rule="evenodd" opacity="1" stroke="none"/>
<path d="M357.328 176.838C355.482 172.862 355.001 168.816 356.256 167.801C357.51 166.786 360.024 169.186 361.871 173.162C363.718 177.137 364.198 181.183 362.944 182.199C361.689 183.214 359.175 180.814 357.328 176.838Z" fill="#12163b" fill-rule="evenodd" opacity="1" stroke="none"/>
</g>
<g id="Layer-6" vectornator:layerName="Layer 6">
<path d="M389.673 164.372C387.845 163.511 386.331 165.268 386.291 168.296C386.258 170.79 387.26 173.295 388.627 174.608L386.056 186.175L392.772 189.338L390.535 175.471C391.875 175.387 392.878 173.855 392.91 171.414C392.95 168.385 391.501 165.232 389.673 164.372Z" fill="#12163b" fill-rule="evenodd" opacity="1" stroke="none"/>
<g opacity="0">
<path d="M336.79 80.1005C331.051 80.1005 326.406 84.6744 326.406 90.288C326.406 95.9017 331.051 100.444 336.79 100.444C342.53 100.444 347.175 95.9017 347.175 90.288L378.998 90.288L378.998 86.1318L346.248 86.1318C344.621 82.5958 341.012 80.1005 336.79 80.1005Z" fill="#12163b" fill-rule="evenodd" opacity="1" stroke="none"/>
<path d="M362.305 91.3752L363.724 91.3752L366.304 95.8972L366.304 91.3752L367.565 91.3752L367.565 97.8527L366.211 97.8527L363.566 93.2517L363.566 97.8527L362.305 97.8527L362.305 91.3752Z" fill="#7a85ff" fill-rule="evenodd" opacity="1" stroke="none"/>
<path d="M368.826 91.384L373.418 91.384L373.418 92.5222L370.171 92.5222L370.171 94.0119L373.014 94.0119L373.014 95.1369L370.171 95.1369L370.171 97.8527L368.826 97.8527L368.826 91.384Z" fill="#7a85ff" fill-rule="evenodd" opacity="1" stroke="none"/>
<path d="M379.03 91.3752L379.03 92.5222L377.092 92.5222L377.092 97.8527L375.73 97.8527L375.73 92.5222L373.783 92.5222L373.783 91.3752L379.03 91.3752Z" fill="#7a85ff" fill-rule="evenodd" opacity="1" stroke="none"/>
<path d="M337.743 81.2255C332.13 81.2254 327.587 85.7993 327.587 91.413C327.587 97.0266 332.13 101.569 337.743 101.569C343.357 101.569 347.9 97.0266 347.9 91.413L379.025 91.413L379.025 87.2567L346.993 87.2567C345.402 83.7207 341.872 81.2255 337.743 81.2255Z" fill="#7a85ff" fill-rule="evenodd" opacity="1" stroke="none"/>
<g opacity="1">
<path d="M330.767 86.1999L334.776 86.1999L336.781 88.2045L338.785 90.2091L342.795 90.2091" fill="none" fill-rule="evenodd" opacity="1" stroke="#12163b" stroke-linecap="round" stroke-linejoin="round" stroke-width="0.217456"/>
<path d="M330.767 90.2091L334.776 90.2091L336.781 88.2045" fill="none" fill-rule="evenodd" opacity="1" stroke="#12163b" stroke-linecap="round" stroke-linejoin="round" stroke-width="0.217456"/>
<path d="M330.767 94.2184L334.776 94.2184L338.785 90.2091" fill="none" fill-rule="evenodd" opacity="1" stroke="#12163b" stroke-linecap="round" stroke-linejoin="round" stroke-width="0.217456"/>
<path d="M328.762 92.2138L332.772 92.2138L334.776 94.2184" fill="none" fill-rule="evenodd" opacity="1" stroke="#12163b" stroke-linecap="round" stroke-linejoin="round" stroke-width="0.217456"/>
<path d="M334.776 98.2277L342.795 90.2091L346.804 90.2091" fill="none" fill-rule="evenodd" opacity="1" stroke="#12163b" stroke-linecap="round" stroke-linejoin="round" stroke-width="0.217456"/>
<path d="M336.781 84.1952L342.795 90.2091" fill="none" fill-rule="evenodd" opacity="1" stroke="#12163b" stroke-linecap="round" stroke-linejoin="round" stroke-width="0.217456"/>
<path d="M336.423 84.1651C336.423 83.9676 336.59 83.8074 336.796 83.8074C337.002 83.8074 337.169 83.9676 337.169 84.1651C337.169 84.3626 337.002 84.5227 336.796 84.5227C336.59 84.5227 336.423 84.3626 336.423 84.1651Z" fill="#12163b" fill-rule="evenodd" opacity="1" stroke="none"/>
<path d="M346.409 90.2382C346.409 90.0407 346.576 89.8805 346.783 89.8805C346.989 89.8805 347.156 90.0407 347.156 90.2382C347.156 90.4357 346.989 90.5959 346.783 90.5959C346.576 90.5959 346.409 90.4357 346.409 90.2382Z" fill="#12163b" fill-rule="evenodd" opacity="1" stroke="none"/>
<path d="M330.415 94.2096C330.415 94.0121 330.583 93.8519 330.789 93.8519C330.995 93.8519 331.162 94.0121 331.162 94.2096C331.162 94.4071 330.995 94.5673 330.789 94.5673C330.583 94.5673 330.415 94.4071 330.415 94.2096Z" fill="#12163b" fill-rule="evenodd" opacity="1" stroke="none"/>
<path d="M328.42 92.2162C328.42 92.0187 328.587 91.8586 328.793 91.8586C328.999 91.8586 329.166 92.0187 329.166 92.2162C329.166 92.4138 328.999 92.5739 328.793 92.5739C328.587 92.5739 328.42 92.4138 328.42 92.2162Z" fill="#12163b" fill-rule="evenodd" opacity="1" stroke="none"/>
<path d="M334.411 98.2594C334.411 98.0619 334.578 97.9017 334.785 97.9017C334.991 97.9017 335.158 98.0619 335.158 98.2594C335.158 98.4569 334.991 98.617 334.785 98.617C334.578 98.617 334.411 98.4569 334.411 98.2594Z" fill="#12163b" fill-rule="evenodd" opacity="1" stroke="none"/>
<path d="M330.443 90.2201C330.443 90.0226 330.61 89.8625 330.816 89.8625C331.022 89.8625 331.19 90.0226 331.19 90.2201C331.19 90.4177 331.022 90.5778 330.816 90.5778C330.61 90.5778 330.443 90.4177 330.443 90.2201Z" fill="#12163b" fill-rule="evenodd" opacity="1" stroke="none"/>
<path d="M330.421 86.1872C330.421 85.9897 330.588 85.8295 330.795 85.8295C331.001 85.8295 331.168 85.9897 331.168 86.1872C331.168 86.3847 331.001 86.5449 330.795 86.5449C330.588 86.5449 330.421 86.3847 330.421 86.1872Z" fill="#12163b" fill-rule="evenodd" opacity="1" stroke="none"/>
</g>
</g>
<g opacity="1">
<path d="M360.268 175.832C356.028 177.474 352.067 182.331 351.418 186.661C350.769 190.992 353.676 193.168 357.917 191.527C362.157 189.886 366.114 185.053 366.763 180.722L390.276 171.621L390.757 168.415L366.559 177.781C365.766 175.518 363.388 174.625 360.268 175.832Z" fill="#12163b" fill-rule="evenodd" opacity="1" stroke="none"/>
<path d="M377.816 177.234L378.865 176.828L380.248 179.579L380.771 176.09L381.703 175.729L380.954 180.727L379.954 181.114L378.531 178.321L378 181.87L377.068 182.231L377.816 177.234Z" fill="#7a85ff" fill-rule="evenodd" opacity="1" stroke="none"/>
<path d="M382.634 175.376L386.027 174.062L385.895 174.94L383.496 175.869L383.324 177.018L385.424 176.205L385.294 177.073L383.194 177.886L382.88 179.981L381.886 180.366L382.634 175.376Z" fill="#7a85ff" fill-rule="evenodd" opacity="1" stroke="none"/>
<path d="M390.174 172.451L390.042 173.335L388.61 173.89L387.994 178.002L386.987 178.392L387.603 174.279L386.165 174.836L386.298 173.951L390.174 172.451Z" fill="#7a85ff" fill-rule="evenodd" opacity="1" stroke="none"/>
<path d="M360.843 176.428C356.695 178.033 352.81 182.861 352.161 187.191C351.512 191.522 354.343 193.728 358.491 192.122C362.638 190.517 366.52 185.713 367.169 181.382L390.166 172.481L390.646 169.275L366.98 178.435C366.213 176.162 363.893 175.247 360.843 176.428Z" fill="#7a85ff" fill-rule="evenodd" opacity="1" stroke="none"/>
<g opacity="1">
<path d="M355.113 182.26L358.075 181.114L359.324 182.087L360.574 183.06L363.536 181.914" fill="none" fill-rule="evenodd" opacity="1" stroke="#12163b" stroke-linecap="round" stroke-linejoin="round" stroke-width="0.217456"/>
<path d="M354.649 185.353L357.612 184.207L359.324 182.087" fill="none" fill-rule="evenodd" opacity="1" stroke="#12163b" stroke-linecap="round" stroke-linejoin="round" stroke-width="0.217456"/>
<path d="M354.186 188.447L357.148 187.3L360.574 183.06" fill="none" fill-rule="evenodd" opacity="1" stroke="#12163b" stroke-linecap="round" stroke-linejoin="round" stroke-width="0.217456"/>
<path d="M352.936 187.473L355.899 186.327L357.148 187.3" fill="none" fill-rule="evenodd" opacity="1" stroke="#12163b" stroke-linecap="round" stroke-linejoin="round" stroke-width="0.217456"/>
<path d="M356.685 190.393L363.536 181.914L366.499 180.767" fill="none" fill-rule="evenodd" opacity="1" stroke="#12163b" stroke-linecap="round" stroke-linejoin="round" stroke-width="0.217456"/>
<path d="M359.788 178.994L363.536 181.914" fill="none" fill-rule="evenodd" opacity="1" stroke="#12163b" stroke-linecap="round" stroke-linejoin="round" stroke-width="0.217456"/>
<path d="M359.527 179.073C359.55 178.921 359.692 178.749 359.844 178.69C359.996 178.631 360.101 178.707 360.078 178.86C360.056 179.012 359.914 179.183 359.761 179.242C359.609 179.301 359.504 179.225 359.527 179.073Z" fill="#12163b" fill-rule="evenodd" opacity="1" stroke="none"/>
<path d="M366.204 180.902C366.226 180.75 366.368 180.579 366.521 180.52C366.673 180.461 366.778 180.537 366.755 180.689C366.732 180.841 366.59 181.013 366.438 181.072C366.286 181.131 366.181 181.055 366.204 180.902Z" fill="#12163b" fill-rule="evenodd" opacity="1" stroke="none"/>
<path d="M353.927 188.54C353.95 188.388 354.092 188.216 354.244 188.158C354.397 188.099 354.501 188.174 354.479 188.327C354.456 188.479 354.314 188.65 354.162 188.709C354.009 188.768 353.904 188.693 353.927 188.54Z" fill="#12163b" fill-rule="evenodd" opacity="1" stroke="none"/>
<path d="M352.683 187.573C352.706 187.421 352.848 187.249 353 187.19C353.152 187.131 353.257 187.207 353.235 187.36C353.212 187.512 353.07 187.683 352.917 187.742C352.765 187.801 352.66 187.725 352.683 187.573Z" fill="#12163b" fill-rule="evenodd" opacity="1" stroke="none"/>
<path d="M356.411 190.522C356.434 190.369 356.576 190.198 356.728 190.139C356.881 190.08 356.986 190.156 356.963 190.308C356.94 190.461 356.798 190.632 356.646 190.691C356.493 190.75 356.389 190.674 356.411 190.522Z" fill="#12163b" fill-rule="evenodd" opacity="1" stroke="none"/>
<path d="M354.409 185.455C354.432 185.302 354.574 185.131 354.726 185.072C354.878 185.013 354.983 185.089 354.96 185.241C354.937 185.393 354.795 185.565 354.643 185.624C354.491 185.683 354.386 185.607 354.409 185.455Z" fill="#12163b" fill-rule="evenodd" opacity="1" stroke="none"/>
<path d="M354.859 182.349C354.882 182.197 355.024 182.026 355.176 181.967C355.328 181.908 355.433 181.984 355.41 182.136C355.388 182.288 355.246 182.46 355.093 182.519C354.941 182.578 354.836 182.502 354.859 182.349Z" fill="#12163b" fill-rule="evenodd" opacity="1" stroke="none"/>
</g>
</g>
</g>
<g id="Layer-2" vectornator:layerName="Layer 2">
<path d="M351.065 178.304C348.946 173.472 348.94 168.804 351.052 167.878C353.165 166.951 355.391 171.167 357.511 175.999C359.63 180.83 365.795 186.403 363.683 187.329C361.57 188.256 353.185 183.136 351.065 178.304Z" fill="#12163b" fill-rule="evenodd" opacity="1" stroke="none"/>
<path d="M362.915 186.915C363.512 186.197 364.452 185.845 365.015 186.127C365.578 186.409 365.55 187.219 364.953 187.936C364.357 188.653 363.417 189.006 362.854 188.724C362.291 188.442 362.319 187.632 362.915 186.915Z" fill="#fed3e4" fill-rule="evenodd" opacity="1" stroke="none"/>
<path d="M350.442 210.134L321.592 222.134L350.442 234.155L379.292 222.134L350.442 210.134Z" fill="#0b9af0" fill-rule="evenodd" opacity="0.15" stroke="none"/>
</g>
<g id="Layer-7" vectornator:layerName="Layer 7">
<g opacity="1" vectornator:blendMode="Screen">
<path d="M502.844 96.6875C502.173 96.9187 501.585 97.4058 501.25 98.0938C500.58 99.4696 501.155 101.142 502.531 101.812C503.056 102.047 503.69 103.786 503.906 104.344C504.005 104.599 504.083 104.84 504.188 105.094C505.18 107.505 505.866 110 506.781 112.438C507.265 113.726 508.019 115.426 509.719 115.156C510.116 115.093 510.466 114.863 510.75 114.594C511.111 114.252 511.298 113.757 511.562 113.344C511.934 112.763 512.343 112.212 512.75 111.656C514.918 108.698 517.216 105.831 519.656 103.094C520.017 102.689 520.414 102.305 520.781 101.906C520.999 101.67 522.174 100.293 522.5 100.5C522.527 100.517 522.467 100.449 522.438 100.438C522.392 100.419 522.252 100.456 522.219 100.469C522.05 100.537 521.904 100.623 521.75 100.719C521.321 100.986 520.9 101.285 520.5 101.594C519.007 102.746 517.558 103.962 516.125 105.188C514.317 106.734 512.509 108.302 510.781 109.938C510.576 110.131 510.39 110.335 510.188 110.531C510.104 109.849 510.005 109.153 509.938 108.469C509.541 104.435 509.135 98.8832 504.969 96.8125C504.281 96.4773 503.514 96.4563 502.844 96.6875Z" fill="#12163b" stroke="none"/>
</g>
<g opacity="1" vectornator:blendMode="Screen">
<path d="M533.263 113.08C533.732 105.116 536.905 99.8016 540.35 101.209C543.795 102.617 546.208 110.213 545.739 118.177C545.27 126.141 542.097 131.455 538.652 130.048C535.207 128.64 532.794 121.044 533.263 113.08Z" fill="#101435" fill-rule="evenodd" opacity="1" stroke="none"/>
<path d="M539.405 116.534C539.405 116.534 539.919 109.364 540.35 101.209C543.795 102.617 546.208 110.213 545.739 118.177C542.613 117.246 539.405 116.534 539.405 116.534Z" fill="#09a2fe" fill-rule="evenodd" opacity="1" stroke="none"/>
</g>
<path d="M551.279 120.551C551.748 112.588 554.921 107.273 558.366 108.68C561.811 110.088 564.224 117.685 563.755 125.648C563.286 133.612 560.113 138.927 556.668 137.519C553.223 136.112 550.81 128.515 551.279 120.551Z" fill="#101435" fill-rule="evenodd" opacity="1" stroke="none" vectornator:blendMode="Screen"/>
<path d="M551.279 120.551C551.748 112.588 554.921 107.273 558.366 108.68L556.668 137.519C553.223 136.112 550.81 128.515 551.279 120.551Z" fill="#09a2fe" fill-rule="evenodd" opacity="1" stroke="none" vectornator:blendMode="Screen"/>
</g>
<g id="Layer-9" vectornator:layerName="Layer 9">
<path d="M192.852 290.063L212.391 298.19L192.852 306.331L173.314 298.19L192.852 290.063Z" fill="none" fill-rule="evenodd" opacity="1" stroke="#0b9ff8" stroke-linecap="round" stroke-linejoin="round" stroke-width="1.28982"/>
<path d="M192.852 310.122L212.391 318.249L192.852 326.39L173.314 318.249L192.852 310.122Z" fill="none" fill-rule="evenodd" opacity="1" stroke="#0b9ff8" stroke-linecap="round" stroke-linejoin="round" stroke-width="1.28982"/>
<path d="M173.314 298.19L173.314 318.249L192.852 326.39L212.391 318.249L212.391 298.19L192.852 306.331L173.314 298.19Z" fill="#0b9af0" fill-rule="evenodd" opacity="1" stroke="#0b9ff8" stroke-linecap="round" stroke-linejoin="round" stroke-width="1.28982"/>
<path d="M187.871 301.784L201.24 296.217L196.784 294.364L183.415 299.927L187.871 301.784Z" fill="#0b9af0" fill-rule="evenodd" opacity="1" stroke="none"/>
</g>
<g id="Layer-10" vectornator:layerName="Layer 10">
<g opacity="1">
<path d="M430.254 267.611L447.449 240.589L464.645 267.611L447.449 277.437L430.254 267.611Z" fill="#9fa8da" fill-rule="evenodd" opacity="1" stroke="none"/>
<path d="M447.449 240.589L464.645 267.611L447.449 277.437L447.449 240.589Z" fill="#7986cb" fill-rule="evenodd" opacity="1" stroke="none"/>
<path d="M430.254 271.295L447.449 281.121L464.645 271.295L447.449 294.632L430.254 271.295Z" fill="#9fa8da" fill-rule="evenodd" opacity="1" stroke="none"/>
<path d="M447.449 281.121L464.645 271.295L447.449 294.632L447.449 281.121ZM430.254 267.611L447.449 260.241L464.645 267.611L447.449 277.437L430.254 267.611Z" fill="#7986cb" fill-rule="evenodd" opacity="1" stroke="none"/>
<path d="M447.449 260.241L464.645 267.611L447.449 277.437L447.449 260.241Z" fill="#5c6bc0" fill-rule="evenodd" opacity="1" stroke="none"/>
</g>
<path d="M214.161 266.12C214.161 261.692 210.571 258.102 206.142 258.102C201.713 258.102 198.123 261.692 198.123 266.12C198.123 268.103 198.123 274.139 200.128 276.143C201.046 277.062 203.635 276.454 206.127 275.662C207.064 275.364 206.644 278.589 207.46 278.311C208.265 278.036 212.312 276.262 212.818 276.143C215.06 275.619 214.161 270.549 214.161 266.12Z" fill="#fed3e4" fill-rule="evenodd" opacity="1" stroke="none"/>
<path d="M214.161 266.12C214.161 261.692 210.571 258.102 206.142 258.102C201.713 258.102 198.123 261.692 198.123 266.12C198.123 267.733 202.217 267.246 205.087 266.582C205.41 266.507 206.568 268.316 206.441 268.05C206.08 267.292 206.568 266.195 206.804 266.12C206.975 266.066 207.761 265.448 208.248 266.856C208.536 267.691 208.289 270.543 208.917 271.086C210.869 272.77 214.365 272.27 214.318 270.794C214.271 269.307 214.161 267.674 214.161 266.12Z" fill="#000000" fill-rule="evenodd" opacity="1" stroke="none"/>
<path d="M222.464 308.131L221.512 321.515C221.512 321.515 220.451 336.821 220.862 337.083C220.889 337.1 215.912 333.576 215.912 333.576L214.61 324.883L214.764 313.927L207.266 320.793L205.849 336.094L202.579 334.079L201.92 322.001L205.439 308.831L222.464 308.131Z" fill="#7a85ff" fill-rule="evenodd" opacity="1" stroke="none"/>
<path d="M220.725 337.379C221.114 336.488 219.571 335.044 217.279 334.153C214.987 333.262 212.814 333.262 212.425 334.152C212.036 335.042 213.579 336.487 215.871 337.378C218.163 338.269 220.336 338.269 220.725 337.379Z" fill="#12163b" fill-rule="evenodd" opacity="1" stroke="none"/>
<path d="M205.992 336.375C206.381 335.485 204.838 334.041 202.546 333.15C200.254 332.259 198.081 332.258 197.692 333.149C197.303 334.039 198.846 335.483 201.138 336.374C203.43 337.265 205.603 337.266 205.992 336.375Z" fill="#12163b" fill-rule="evenodd" opacity="1" stroke="none"/>
<path d="M213.742 275.483C214.696 275.422 218.8 279.512 219.466 288.904C220.132 298.296 220.204 299.095 222.409 305.996C224.614 312.896 218.367 308.976 212.65 309.647C206.932 310.318 204.821 310.476 203.638 305.402C202.456 300.328 203.357 279.39 206.774 276.594C206.774 276.594 208.374 277.109 210.509 276.497C212.537 275.917 212.735 275.547 213.742 275.483Z" fill="#12163b" fill-rule="evenodd" opacity="1" stroke="none"/>
<path d="M189.397 293.295C189.397 293.295 189.186 299.668 189.272 299.668C189.359 299.668 195.738 297.008 195.738 297.008L195.738 291.063L189.397 293.295Z" fill="#ffffff" fill-rule="evenodd" opacity="1" stroke="none"/>
<path d="M194.924 292.394C194.924 291.548 195.33 290.863 195.832 290.863C196.333 290.863 196.74 291.548 196.74 292.394C196.74 293.24 196.333 293.926 195.832 293.926C195.33 293.926 194.924 293.24 194.924 292.394Z" fill="#fed3e4" fill-rule="evenodd" opacity="1" stroke="none"/>
<path d="M196.265 290.879L196.625 293.263L204.841 290.801L211.122 287.724L212.027 278.328L204.275 286.792L196.265 290.879Z" fill="#12163b" fill-rule="evenodd" opacity="1" stroke="none"/>
<path d="M189.397 291.084L189.616 293.484L197.962 291.508L204.413 288.805L205.868 279.477L197.632 287.472L189.397 291.084Z" fill="#12163b" fill-rule="evenodd" opacity="1" stroke="none"/>
<path d="M188.488 292.295C188.488 291.449 188.895 290.764 189.397 290.764C189.898 290.764 190.305 291.449 190.305 292.295C190.305 293.141 189.898 293.827 189.397 293.827C188.895 293.827 188.488 293.141 188.488 292.295Z" fill="#fed3e4" fill-rule="evenodd" opacity="1" stroke="none"/>
</g>
</svg>
