<?xml version="1.0" encoding="UTF-8"?>
<!DOCTYPE svg  PUBLIC '-//W3C//DTD SVG 1.1//EN'  'http://www.w3.org/Graphics/SVG/1.1/DTD/svg11.dtd'>
<svg 
clip-rule="evenodd" 
stroke-linecap="round" 
stroke-linejoin="round" 
stroke-miterlimit="10" 
version="1.1" 
viewBox="0 0 595.35 419.58"  
xmlns="http://www.w3.org/2000/svg" 
xmlnsVectornator="http://vectornator.io">

<g visibility="hidden" vectornatorLayerName="Layer 1">
<path d="m0 0h595.35v419.58h-595.35v-419.58z" fill="#393e41" fill-rule="evenodd" stroke="#000" stroke-linecap="round" stroke-linejoin="round" stroke-width="1.2898"/>
</g>
<g fill-rule="evenodd" vectornatorLayerName="Layer 3">
<path d="m368.86 132.31 48.112 20.046v56.13l-48.112-20.046v-56.13z" fill="none" stroke="#0b9ff8" stroke-linecap="round" stroke-linejoin="round" stroke-width="1.2898"/>
<path d="m465.08 132.31-48.111 20.046v56.13l48.111-20.046v-56.13z" fill="none" stroke="#0b9ff8" stroke-linecap="round" stroke-linejoin="round" stroke-width="1.2898"/>
<path d="m368.86 132.31 48.112 20.046 48.111-20.046-48.111-20.047-48.112 20.047z" fill="none" stroke="#0b9ff8" stroke-linecap="round" stroke-linejoin="round" stroke-width="1.2898"/>
<path d="m465.08 188.44-48.111-20.047v-56.13l48.111 20.047v56.13z" fill="none" stroke="#0b9ff8" stroke-dasharray="3.705923151613301" stroke-linecap="round" stroke-linejoin="round" stroke-width="1.2898"/>
<path d="m368.86 188.44 48.112-20.047v-56.13l-48.112 20.047v56.13z" fill="none" stroke="#0b9ff8" stroke-dasharray="3.705923151613301" stroke-linecap="round" stroke-linejoin="round" stroke-width="1.2898"/>
<path d="m229.88 293.68 163.04-70.717" fill="none" stroke="#0b9ff8" stroke-linecap="round" stroke-linejoin="round" stroke-width="1.2898"/>
<g fill="none" stroke="#0b9ff8" stroke-linecap="round" stroke-linejoin="round" stroke-width="1.2898">
<path d="m467.08 280.65 55.898-24.246"/>
<path d="m441.02 222.52 81.959 33.889"/>
</g>
<path d="m364.41 235.54 28.066-12.218" fill="none" stroke="#0b9ff8" stroke-linecap="round" stroke-linejoin="round" stroke-width="1.2898"/>
<g fill="none" stroke="#0b9ff8" stroke-linecap="round" stroke-linejoin="round" stroke-width="1.2898">
<path d="m338.63 274.64 25.802-11.397"/>
<path d="m364.38 235.54s-3e-3 27.74 1e-3 27.696"/>
</g>
<path d="m416.97 232.54 48.111-20.011-48.111-20.047-48.112 20.047 48.112 20.011z" fill="none" stroke="#0b9ff8" stroke-linecap="round" stroke-linejoin="round" stroke-width="1.2898"/>
<path d="m534.21 137.33 2.005 114.26-82.183-34.065" fill="none" stroke="#0b9ff8" stroke-linecap="round" stroke-linejoin="round" stroke-width="1.2898"/>
<g>
<path d="m313.88 169.91-1.719 0.719 78.5 32.437c0.329 0.137 0.708-0.014 0.844-0.343s-0.015-0.708-0.344-0.844l-77.281-31.969z" fill="#0b9ff8"/>
<path d="m312.16 170.62-1.687-0.719-41.469 17.156 1.688 0.688 41.468-17.125z" fill="#0b9ff8"/>
<path d="m312.19 169.22-1.719 0.687 1.687 0.719 1.719-0.719-1.687-0.687z" fill="#0b9ff8"/>
<path d="m267.31 187.75 1.688-0.688-56.25-23.281c-0.329-0.136-0.708 0.015-0.844 0.344s0.015 0.708 0.344 0.844l55.062 22.781z" fill="#0b9ff8"/>
<path d="m269 187.06-1.688 0.688 1.688 0.688 1.688-0.688-1.688-0.688z" fill="#0b9ff8"/>
<path d="m212.51 164.4-0.013-20.061" fill="none" stroke="#0b9ff8" stroke-linecap="round" stroke-linejoin="round" stroke-width="1.2898"/>
</g>
<path d="m368.86 132.31 48.112 20.046v56.13l-48.112-20.046v-56.13z" fill="#0b9ff8" opacity=".15"/>
<path d="m465.08 132.31-48.111 20.046v56.13l48.111-20.046v-56.13z" fill="#0b9ff8" opacity=".15"/>
<path d="m416.97 152.35 48.111-20.046-48.111-20.047-48.112 20.047 48.112 20.046z" fill="#0b9ff8" opacity=".15"/>
<g>
<path d="m534.22 137.34 43.798 18.242c2.372 0.988 4.295-0.294 4.295-2.864v-46.819c0-2.57-1.922-5.455-4.294-6.4444l-43.799-18.271-43.83-18.243c-2.372-0.9875-4.295 0.2952-4.295 2.8649v46.819c0 2.57 1.923 5.455 4.294 6.444l43.831 18.272z" fill="none" stroke="#0b9ff8" stroke-linecap="round" stroke-linejoin="round" stroke-width="1.2898"/>
<path d="m486.16 68.698 95.188 39.553" fill="none" stroke="#0b9ff8" stroke-linecap="round" stroke-linejoin="round" stroke-width="1.3705"/>
<path d="m534.28 136.33 43.798 18.243c2.373 0.988 4.296-0.295 4.296-2.864v-46.819c0-2.57-1.923-5.4554-4.295-6.4447l-43.799-18.271-43.829-18.243c-2.373-0.9875-4.296 0.2952-4.296 2.865v46.819c0 2.57 1.923 5.455 4.295 6.443l43.83 18.272z" fill="#0b9ff8" opacity=".15"/>
<path d="m525.07 149.06 43.799 18.243c2.372 0.988 4.295-0.295 4.295-2.864v-46.819c0-2.57-1.923-5.455-4.294-6.445l-43.8-18.271-43.829-18.243c-2.373-0.9875-4.296 0.2952-4.296 2.865v46.819c0 2.57 1.923 5.454 4.295 6.443l43.83 18.272z" fill="#0b9ff8" opacity=".15"/>
<path d="m541.37 134.02 43.798 18.242c2.372 0.988 4.295-0.294 4.295-2.864v-46.819c0-2.57-1.922-5.455-4.294-6.4444l-43.799-18.271-43.83-18.243c-2.372-0.9875-4.295 0.2952-4.295 2.865v46.819c0 2.57 1.922 5.455 4.294 6.444l43.831 18.272z" fill="#0b9ff8" opacity=".15"/>
</g>
</g>
<g fill-rule="evenodd" stroke="#0b9ff8" stroke-linecap="round" stroke-linejoin="round" stroke-width="1.2898" vectornatorLayerName="Layer 8">
<path d="m447.04 317.94 48.112-20.012-48.112-20.047-48.111 20.047 48.111 20.012z" fill="none" opacity="0"/>
<g>
<path d="m447.04 312.69 48.112-20.011-48.112-20.047-48.111 20.047 48.111 20.011z" fill="none"/>
<path d="m398.92 297.93v-5.248l48.111 20.011 48.112-20.011v5.248l-48.112 20.012-48.111-20.012z" fill="#0b9af0"/>
</g>
<g>
<path d="m198.09 348.81 81.819-34.032-81.819-34.091-81.818 34.091 81.818 34.032z" fill="none"/>
<path d="m116.27 314.78 81.818 34.032 81.819-34.032v6.006l-81.819 34.032-81.818-34.032v-6.006z" fill="#0b9af0"/>
</g>
<g>
<path d="m327.54 270.66-28.85 12 28.85 12.021 28.85-12.021-28.85-12z" fill="none"/>
<path d="m298.69 282.66 28.85 12.021 28.85-12.021v2.564l-28.85 12.02-28.85-12.02v-2.564z" fill="#0b9af0"/>
</g>
<path d="m349.59 209.96-28.85 12 28.85 12.021 28.85-12.021-28.85-12z" fill="none"/>
<path d="m320.74 221.96 28.85 12.021 28.85-12.021v2.548l-28.85 12.021-28.85-12.021v-2.548z" fill="#0b9af0"/>
<path d="m368.86 212.53 48.112 20.011 48.111-20.011v3.004l-48.111 20.012-48.112-20.012v-3.004z" fill="#0b9af0"/>
</g>
<g fill-rule="evenodd" vectornatorLayerName="Layer 5">
<path d="m171.28 121.58 0.176 31.235 48.283-20.047-0.175-31.235-48.284 20.047z" fill="none" stroke="#0b9ff8" stroke-linecap="round" stroke-linejoin="round"/>
<path d="m213.41 108.88c-3.218 0.108-0.633 11.984-5.781 14.344s-8.107-1.671-12.719-0.062c-4.612 1.608-1.114 10.882-11.25 12.812-5.912 1.126-9.872-0.718-12.312-2.469l0.093 19.313 48.313-20.063-0.094-15.437c-2.47-2.434-3.819-8.519-6.25-8.438z" fill="#09a2fe" fill-opacity=".076672" stroke="#0b9ff8" stroke-linecap="round" stroke-linejoin="round"/>
<path d="m212.51 88.189 45.926-19.128c1.197-0.4987 2.168 0.1485 2.168 1.4456v51.427c0 1.298-0.971 2.754-2.168 3.253l-45.926 19.159-45.957 19.128c-1.197 0.499-2.168-0.149-2.168-1.446v-51.428c0-1.297 0.971-2.753 2.168-3.252l45.957-19.159z" fill="#09a2fe" fill-opacity=".076672" stroke="#0b9ff8" stroke-linecap="round" stroke-linejoin="round" stroke-width="1.2898"/>
<path d="m164.59 116.32 95.862-39.981" fill="none" stroke="#0b9ff8" stroke-linecap="round" stroke-linejoin="round" stroke-width="1.2898"/>
<path d="m231.77 102.64 15.031-6.086 0.169 4.694-15.031 6.086-0.169-4.694z" fill="#09a2fe"/>
<path d="m232.07 111.04 9.471-3.834 0.169 4.694-9.471 3.834-0.169-4.694z" fill="#09a2fe"/>
<path d="m232.37 119.43 13.692-5.544 0.169 4.694-13.692 5.544-0.169-4.694z" fill="#09a2fe"/>
<path d="m252.66 66.688-45.937 19.125-45.969 19.156c-1.197 0.499-2.156 1.953-2.156 3.25v51.437c0 1.297 0.958 1.936 2.156 1.438l3.625-1.5v-49c0-1.297 0.99-2.751 2.187-3.25l45.938-19.156 42.312-17.625v-2.4375c0-1.2971-0.958-1.9362-2.156-1.4375z" fill="#09a2fe" stroke="#0b9ff8" stroke-linecap="round" stroke-linejoin="round" stroke-width="1.2898"/>
</g>
<g fill-rule="evenodd" vectornatorLayerName="Person">
<path d="m349.52 152.5c0-4.429 3.59-8.019 8.019-8.019s8.019 3.59 8.019 8.019c0 1.983 0 8.019-2.005 10.023-0.918 0.918-3.507 0.311-5.999-0.481-0.937-0.298-0.517 2.927-1.333 2.649-0.805-0.275-4.852-2.05-5.358-2.168-2.242-0.524-1.343-5.594-1.343-10.023z" fill="#fed3e4"/>
<path d="m349.52 152.5c0-4.429 3.59-8.019 8.019-8.019s8.019 3.59 8.019 8.019c0 1.613-4.094 1.126-6.964 0.462-0.323-0.075-1.481 1.734-1.354 1.468 0.361-0.758-0.127-1.855-0.363-1.93-0.171-0.054-0.957-0.672-1.443 0.736-0.289 0.834-0.042 3.687-0.67 4.23-1.952 1.684-5.448 1.184-5.401-0.292 0.047-1.488 0.157-3.12 0.157-4.674z"/>
<path d="m341.21 194.51 0.952 13.385s1.061 15.306 0.65 15.568c-0.027 0.017 4.95-3.507 4.95-3.507l1.302-8.693-0.154-10.956 7.498 6.866 1.417 15.301 3.27-2.015 0.659-12.078-3.519-13.17-17.025-0.701z" fill="#7a85ff"/>
<path d="m342.95 223.76c-0.389-0.891 1.154-2.335 3.446-3.226s4.465-0.892 4.854-1e-3c0.389 0.89-1.154 2.334-3.446 3.225-2.292 0.892-4.465 0.892-4.854 2e-3z" fill="#12163b"/>
<path d="m357.68 222.75c-0.389-0.89 1.154-2.334 3.446-3.225s4.465-0.892 4.854-1e-3c0.389 0.89-1.154 2.334-3.446 3.225s-4.465 0.892-4.854 1e-3z" fill="#12163b"/>
<path d="m349.93 161.86c-0.954-0.061-5.058 4.029-5.724 13.421s-0.738 10.191-2.943 17.092c-2.205 6.9 4.042 2.98 9.759 3.651 5.718 0.671 7.829 0.829 9.012-4.245 1.182-5.074 0.281-26.012-3.136-28.808 0 0-1.6 0.515-3.735-0.097-2.028-0.581-2.226-0.95-3.233-1.014z" fill="#12163b"/>
<path d="m357.33 176.84c-1.846-3.976-2.327-8.022-1.072-9.037 1.254-1.015 3.768 1.385 5.615 5.361 1.847 3.975 2.327 8.021 1.073 9.037-1.255 1.015-3.769-1.385-5.616-5.361z" fill="#12163b"/>
</g>
<g fill-rule="evenodd" vectornatorLayerName="Layer 6">
<path d="m389.67 164.37c-1.828-0.861-3.342 0.896-3.382 3.924-0.033 2.494 0.969 4.999 2.336 6.312l-2.571 11.567 6.716 3.163-2.237-13.867c1.34-0.084 2.343-1.616 2.375-4.057 0.04-3.029-1.409-6.182-3.237-7.042z" fill="#12163b"/>
<g opacity="0">
<path d="m336.79 80.1c-5.739 0-10.384 4.5739-10.384 10.188 0 5.6137 4.645 10.156 10.384 10.156 5.74 0 10.385-4.5423 10.385-10.156h31.823v-4.1562h-32.75c-1.627-3.536-5.236-6.0313-9.458-6.0313z" fill="#12163b" opacity="1"/>
<path d="m362.3 91.375h1.419l2.58 4.522v-4.522h1.261v6.4775h-1.354l-2.645-4.601v4.601h-1.261v-6.4775z" fill="#7a85ff" opacity="1"/>
<path d="m368.83 91.384h4.592v1.1382h-3.247v1.4897h2.843v1.125h-2.843v2.7158h-1.345v-6.4687z" fill="#7a85ff" opacity="1"/>
<path d="m379.03 91.375v1.147h-1.938v5.3305h-1.362v-5.3305h-1.947v-1.147h5.247z" fill="#7a85ff" opacity="1"/>
<path d="m337.74 81.226c-5.613-1e-4 -10.156 4.5738-10.156 10.188 0 5.6136 4.543 10.156 10.156 10.156 5.614 0 10.157-4.5424 10.157-10.156h31.125v-4.1563h-32.032c-1.591-3.536-5.121-6.0312-9.25-6.0312z" fill="#7a85ff" opacity="1"/>
<g opacity="1">
<path d="m330.77 86.2h4.009l2.005 2.0046 2.004 2.0046h4.01" fill="none" opacity="1" stroke="#12163b" stroke-linecap="round" stroke-linejoin="round" stroke-width=".21746"/>
<path d="m330.77 90.209h4.009l2.005-2.0046" fill="none" opacity="1" stroke="#12163b" stroke-linecap="round" stroke-linejoin="round" stroke-width=".21746"/>
<path d="m330.77 94.218h4.009l4.009-4.0093" fill="none" opacity="1" stroke="#12163b" stroke-linecap="round" stroke-linejoin="round" stroke-width=".21746"/>
<path d="m328.76 92.214h4.01l2.004 2.0046" fill="none" opacity="1" stroke="#12163b" stroke-linecap="round" stroke-linejoin="round" stroke-width=".21746"/>
<path d="m334.78 98.228 8.019-8.0186h4.009" fill="none" opacity="1" stroke="#12163b" stroke-linecap="round" stroke-linejoin="round" stroke-width=".21746"/>
<path d="m336.78 84.195 6.014 6.0139" fill="none" opacity="1" stroke="#12163b" stroke-linecap="round" stroke-linejoin="round" stroke-width=".21746"/>
<path d="m336.42 84.165c0-0.1975 0.167-0.3577 0.373-0.3577s0.373 0.1602 0.373 0.3577-0.167 0.3576-0.373 0.3576-0.373-0.1601-0.373-0.3576z" fill="#12163b" opacity="1"/>
<path d="m346.41 90.238c0-0.1975 0.167-0.3577 0.374-0.3577 0.206 0 0.373 0.1602 0.373 0.3577s-0.167 0.3577-0.373 0.3577c-0.207 0-0.374-0.1602-0.374-0.3577z" fill="#12163b" opacity="1"/>
<path d="m330.42 94.21c0-0.1975 0.168-0.3577 0.374-0.3577s0.373 0.1602 0.373 0.3577-0.167 0.3577-0.373 0.3577-0.374-0.1602-0.374-0.3577z" fill="#12163b" opacity="1"/>
<path d="m328.42 92.216c0-0.1975 0.167-0.3576 0.373-0.3576s0.373 0.1601 0.373 0.3576c0 0.1976-0.167 0.3577-0.373 0.3577s-0.373-0.1601-0.373-0.3577z" fill="#12163b" opacity="1"/>
<path d="m334.41 98.259c0-0.1975 0.167-0.3577 0.374-0.3577 0.206 0 0.373 0.1602 0.373 0.3577s-0.167 0.3576-0.373 0.3576c-0.207 0-0.374-0.1601-0.374-0.3576z" fill="#12163b" opacity="1"/>
<path d="m330.44 90.22c0-0.1975 0.167-0.3576 0.373-0.3576s0.374 0.1601 0.374 0.3576c0 0.1976-0.168 0.3577-0.374 0.3577s-0.373-0.1601-0.373-0.3577z" fill="#12163b" opacity="1"/>
<path d="m330.42 86.187c0-0.1975 0.167-0.3577 0.374-0.3577 0.206 0 0.373 0.1602 0.373 0.3577s-0.167 0.3577-0.373 0.3577c-0.207 0-0.374-0.1602-0.374-0.3577z" fill="#12163b" opacity="1"/>
</g>
</g>
<g>
<path d="m360.27 175.83c-4.24 1.642-8.201 6.499-8.85 10.829-0.649 4.331 2.258 6.507 6.499 4.866 4.24-1.641 8.197-6.474 8.846-10.805l23.513-9.101 0.481-3.206-24.198 9.366c-0.793-2.263-3.171-3.156-6.291-1.949z" fill="#12163b"/>
<path d="m377.82 177.23 1.049-0.406 1.383 2.751 0.523-3.489 0.932-0.361-0.749 4.998-1 0.387-1.423-2.793-0.531 3.549-0.932 0.361 0.748-4.997z" fill="#7a85ff"/>
<path d="m382.63 175.38 3.393-1.314-0.132 0.878-2.399 0.929-0.172 1.149 2.1-0.813-0.13 0.868-2.1 0.813-0.314 2.095-0.994 0.385 0.748-4.99z" fill="#7a85ff"/>
<path d="m390.17 172.45-0.132 0.884-1.432 0.555-0.616 4.112-1.007 0.39 0.616-4.113-1.438 0.557 0.133-0.885 3.876-1.5z" fill="#7a85ff"/>
<path d="m360.84 176.43c-4.148 1.605-8.033 6.433-8.682 10.763-0.649 4.331 2.182 6.537 6.33 4.931 4.147-1.605 8.029-6.409 8.678-10.74l22.997-8.901 0.48-3.206-23.666 9.16c-0.767-2.273-3.087-3.188-6.137-2.007z" fill="#7a85ff"/>
<g>
<path d="m355.11 182.26 2.962-1.146 1.249 0.973 1.25 0.973 2.962-1.146" fill="none" stroke="#12163b" stroke-linecap="round" stroke-linejoin="round" stroke-width=".21746"/>
<path d="m354.65 185.35 2.963-1.146 1.712-2.12" fill="none" stroke="#12163b" stroke-linecap="round" stroke-linejoin="round" stroke-width=".21746"/>
<path d="m354.19 188.45 2.962-1.147 3.426-4.24" fill="none" stroke="#12163b" stroke-linecap="round" stroke-linejoin="round" stroke-width=".21746"/>
<path d="m352.94 187.47 2.963-1.146 1.249 0.973" fill="none" stroke="#12163b" stroke-linecap="round" stroke-linejoin="round" stroke-width=".21746"/>
<path d="m356.68 190.39 6.851-8.479 2.963-1.147" fill="none" stroke="#12163b" stroke-linecap="round" stroke-linejoin="round" stroke-width=".21746"/>
<path d="m359.79 178.99 3.748 2.92" fill="none" stroke="#12163b" stroke-linecap="round" stroke-linejoin="round" stroke-width=".21746"/>
<path d="m359.53 179.07c0.023-0.152 0.165-0.324 0.317-0.383s0.257 0.017 0.234 0.17c-0.022 0.152-0.164 0.323-0.317 0.382-0.152 0.059-0.257-0.017-0.234-0.169z" fill="#12163b"/>
<path d="m366.2 180.9c0.022-0.152 0.164-0.323 0.317-0.382 0.152-0.059 0.257 0.017 0.234 0.169s-0.165 0.324-0.317 0.383-0.257-0.017-0.234-0.17z" fill="#12163b"/>
<path d="m353.93 188.54c0.023-0.152 0.165-0.324 0.317-0.382 0.153-0.059 0.257 0.016 0.235 0.169-0.023 0.152-0.165 0.323-0.317 0.382-0.153 0.059-0.258-0.016-0.235-0.169z" fill="#12163b"/>
<path d="m352.68 187.57c0.023-0.152 0.165-0.324 0.317-0.383s0.257 0.017 0.235 0.17c-0.023 0.152-0.165 0.323-0.318 0.382-0.152 0.059-0.257-0.017-0.234-0.169z" fill="#12163b"/>
<path d="m356.41 190.52c0.023-0.153 0.165-0.324 0.317-0.383 0.153-0.059 0.258 0.017 0.235 0.169-0.023 0.153-0.165 0.324-0.317 0.383-0.153 0.059-0.257-0.017-0.235-0.169z" fill="#12163b"/>
<path d="m354.41 185.46c0.023-0.153 0.165-0.324 0.317-0.383s0.257 0.017 0.234 0.169-0.165 0.324-0.317 0.383-0.257-0.017-0.234-0.169z" fill="#12163b"/>
<path d="m354.86 182.35c0.023-0.152 0.165-0.323 0.317-0.382s0.257 0.017 0.234 0.169c-0.022 0.152-0.164 0.324-0.317 0.383-0.152 0.059-0.257-0.017-0.234-0.17z" fill="#12163b"/>
</g>
</g>
</g>
<g fill-rule="evenodd" vectornatorLayerName="Layer 2">
<path d="m351.06 178.3c-2.119-4.832-2.125-9.5-0.013-10.426 2.113-0.927 4.339 3.289 6.459 8.121 2.119 4.831 8.284 10.404 6.172 11.33-2.113 0.927-10.498-4.193-12.618-9.025z" fill="#12163b"/>
<path d="m362.92 186.92c0.597-0.718 1.537-1.07 2.1-0.788s0.535 1.092-0.062 1.809c-0.596 0.717-1.536 1.07-2.099 0.788s-0.535-1.092 0.061-1.809z" fill="#fed3e4"/>
<path d="m350.44 210.13-28.85 12 28.85 12.021 28.85-12.021-28.85-12z" fill="#0b9af0" opacity=".15"/>
</g>
<g vectornatorLayerName="Layer 7">
<g vectornatorBlendMode="Screen">
<path d="m502.84 96.688c-0.671 0.2312-1.259 0.7183-1.594 1.4063-0.67 1.3758-0.095 3.0482 1.281 3.7182 0.525 0.235 1.159 1.974 1.375 2.532 0.099 0.255 0.177 0.496 0.282 0.75 0.992 2.411 1.678 4.906 2.593 7.344 0.484 1.288 1.238 2.988 2.938 2.718 0.397-0.063 0.747-0.293 1.031-0.562 0.361-0.342 0.548-0.837 0.812-1.25 0.372-0.581 0.781-1.132 1.188-1.688 2.168-2.958 4.466-5.825 6.906-8.562 0.361-0.405 0.758-0.789 1.125-1.188 0.218-0.236 1.393-1.613 1.719-1.406 0.027 0.017-0.033-0.051-0.062-0.062-0.046-0.019-0.186 0.018-0.219 0.031-0.169 0.068-0.315 0.154-0.469 0.25-0.429 0.267-0.85 0.566-1.25 0.875-1.493 1.152-2.942 2.368-4.375 3.594-1.808 1.546-3.616 3.114-5.344 4.75-0.205 0.193-0.391 0.397-0.593 0.593-0.084-0.682-0.183-1.378-0.25-2.062-0.397-4.034-0.803-9.5858-4.969-11.656-0.688-0.3352-1.455-0.3562-2.125-0.125z" fill="#12163b"/>
</g>
<g fill-rule="evenodd" vectornatorBlendMode="Screen">
<path d="m533.26 113.08c0.469-7.964 3.642-13.278 7.087-11.871 3.445 1.408 5.858 9.004 5.389 16.968s-3.642 13.278-7.087 11.871c-3.445-1.408-5.858-9.004-5.389-16.968z" fill="#101435"/>
<path d="m539.4 116.53s0.514-7.17 0.945-15.325c3.445 1.408 5.858 9.004 5.389 16.968-3.126-0.931-6.334-1.643-6.334-1.643z" fill="#09a2fe"/>
</g>
<path d="m551.28 120.55c0.469-7.963 3.642-13.278 7.087-11.871 3.445 1.408 5.858 9.005 5.389 16.968-0.469 7.964-3.642 13.279-7.087 11.871-3.445-1.407-5.858-9.004-5.389-16.968z" fill="#101435" fill-rule="evenodd" vectornatorBlendMode="Screen"/>
<path d="m551.28 120.55c0.469-7.963 3.642-13.278 7.087-11.871l-1.698 28.839c-3.445-1.407-5.858-9.004-5.389-16.968z" fill="#09a2fe" fill-rule="evenodd" vectornatorBlendMode="Screen"/>
</g>
<g fill-rule="evenodd" vectornatorLayerName="Layer 9">
<path d="m192.85 290.06 19.539 8.127-19.539 8.141-19.538-8.141 19.538-8.127z" fill="none" stroke="#0b9ff8" stroke-linecap="round" stroke-linejoin="round" stroke-width="1.2898"/>
<path d="m192.85 310.12 19.539 8.127-19.539 8.141-19.538-8.141 19.538-8.127z" fill="none" stroke="#0b9ff8" stroke-linecap="round" stroke-linejoin="round" stroke-width="1.2898"/>
<path d="m173.31 298.19v20.059l19.538 8.141 19.539-8.141v-20.059l-19.539 8.141-19.538-8.141z" fill="#0b9af0" stroke="#0b9ff8" stroke-linecap="round" stroke-linejoin="round" stroke-width="1.2898"/>
<path d="m187.87 301.78 13.369-5.567-4.456-1.853-13.369 5.563 4.456 1.857z" fill="#0b9af0"/>
</g>
<g fill-rule="evenodd" vectornatorLayerName="Layer 10">
<g>
<path d="m430.25 267.61 17.195-27.022 17.196 27.022-17.196 9.826-17.195-9.826z" fill="#9fa8da"/>
<path d="m447.45 240.59 17.196 27.022-17.196 9.826v-36.848z" fill="#7986cb"/>
<path d="m430.25 271.3 17.195 9.826 17.196-9.826-17.196 23.337-17.195-23.337z" fill="#9fa8da"/>
<path d="m447.45 281.12 17.196-9.826-17.196 23.337v-13.511zm-17.195-13.51 17.195-7.37 17.196 7.37-17.196 9.826-17.195-9.826z" fill="#7986cb"/>
<path d="m447.45 260.24 17.196 7.37-17.196 9.826v-17.196z" fill="#5c6bc0"/>
</g>
<path d="m214.16 266.12c0-4.428-3.59-8.018-8.019-8.018s-8.019 3.59-8.019 8.018c0 1.983 0 8.019 2.005 10.023 0.918 0.919 3.507 0.311 5.999-0.481 0.937-0.298 0.517 2.927 1.333 2.649 0.805-0.275 4.852-2.049 5.358-2.168 2.242-0.524 1.343-5.594 1.343-10.023z" fill="#fed3e4"/>
<path d="m214.16 266.12c0-4.428-3.59-8.018-8.019-8.018s-8.019 3.59-8.019 8.018c0 1.613 4.094 1.126 6.964 0.462 0.323-0.075 1.481 1.734 1.354 1.468-0.361-0.758 0.127-1.855 0.363-1.93 0.171-0.054 0.957-0.672 1.444 0.736 0.288 0.835 0.041 3.687 0.669 4.23 1.952 1.684 5.448 1.184 5.401-0.292-0.047-1.487-0.157-3.12-0.157-4.674z"/>
<path d="m222.46 308.13-0.952 13.384s-1.061 15.306-0.65 15.568c0.027 0.017-4.95-3.507-4.95-3.507l-1.302-8.693 0.154-10.956-7.498 6.866-1.417 15.301-3.27-2.015-0.659-12.078 3.519-13.17 17.025-0.7z" fill="#7a85ff"/>
<path d="m220.72 337.38c0.389-0.891-1.154-2.335-3.446-3.226s-4.465-0.891-4.854-1e-3 1.154 2.335 3.446 3.226 4.465 0.891 4.854 1e-3z" fill="#12163b"/>
<path d="m205.99 336.38c0.389-0.89-1.154-2.334-3.446-3.225s-4.465-0.892-4.854-1e-3c-0.389 0.89 1.154 2.334 3.446 3.225s4.465 0.892 4.854 1e-3z" fill="#12163b"/>
<path d="m213.74 275.48c0.954-0.061 5.058 4.029 5.724 13.421s0.738 10.191 2.943 17.092c2.205 6.9-4.042 2.98-9.759 3.651-5.718 0.671-7.829 0.829-9.012-4.245-1.182-5.074-0.281-26.012 3.136-28.808 0 0 1.6 0.515 3.735-0.097 2.028-0.58 2.226-0.95 3.233-1.014z" fill="#12163b"/>
<path d="m189.4 293.3s-0.211 6.373-0.125 6.373c0.087 0 6.466-2.66 6.466-2.66v-5.945l-6.341 2.232z" fill="#fff"/>
<path d="m194.92 292.39c0-0.846 0.406-1.531 0.908-1.531 0.501 0 0.908 0.685 0.908 1.531s-0.407 1.532-0.908 1.532c-0.502 0-0.908-0.686-0.908-1.532z" fill="#fed3e4"/>
<path d="m196.26 290.88 0.36 2.384 8.216-2.462 6.281-3.077 0.905-9.396-7.752 8.464-8.01 4.087z" fill="#12163b"/>
<path d="m189.4 291.08 0.219 2.4 8.346-1.976 6.451-2.703 1.455-9.328-8.236 7.995-8.235 3.612z" fill="#12163b"/>
<path d="m188.49 292.3c0-0.846 0.407-1.531 0.909-1.531 0.501 0 0.908 0.685 0.908 1.531s-0.407 1.532-0.908 1.532c-0.502 0-0.909-0.686-0.909-1.532z" fill="#fed3e4"/>
</g>
</svg>
